<svg width="19" height="16" viewBox="0 0 19 16" fill="none" xmlns="http://www.w3.org/2000/svg">
<path d="M9.6615 15.3142C3.43939 15.3142 0.515104 8.7079 0.387033 8.43041C0.344759 8.32892 0.322998 8.22016 0.322998 8.11024C0.322998 8.00031 0.344759 7.89155 0.387033 7.79006C0.515104 7.51257 3.43939 0.90625 9.6615 0.90625C15.8836 0.90625 18.8079 7.51257 18.936 7.79006C18.9782 7.89155 19 8.00031 19 8.11024C19 8.22016 18.9782 8.32892 18.936 8.43041C18.8079 8.7079 15.8836 15.3142 9.6615 15.3142ZM2.00926 8.11024C2.63895 9.33758 5.21104 13.7133 9.6615 13.7133C14.112 13.7133 16.6841 9.33758 17.3137 8.11024C16.6841 6.88289 14.112 2.50714 9.6615 2.50714C5.21104 2.50714 2.63895 6.88289 2.00926 8.11024Z" fill="#B8B8B8"/>
<path d="M9.66146 11.5788C8.97542 11.5788 8.30486 11.3754 7.73442 10.9942C7.16401 10.6131 6.71943 10.0714 6.4569 9.43753C6.19437 8.8038 6.12569 8.10634 6.25952 7.43354C6.39335 6.76064 6.7237 6.14259 7.20879 5.65752C7.69386 5.17243 8.31191 4.84208 8.98481 4.70825C9.65761 4.57442 10.3551 4.6431 10.9888 4.90563C11.6226 5.16816 12.1644 5.61274 12.5455 6.18315C12.9266 6.75359 13.13 7.42415 13.13 8.11019C13.1273 9.0292 12.7609 9.9099 12.111 10.5598C11.4612 11.2096 10.5805 11.576 9.66146 11.5788ZM9.66146 6.24249C9.29208 6.24249 8.93092 6.35199 8.62387 6.55722C8.31671 6.76245 8.07732 7.05413 7.93591 7.39544C7.79461 7.73675 7.75757 8.11221 7.82961 8.47455C7.90176 8.83688 8.07957 9.16965 8.34083 9.43081C8.60199 9.69207 8.93476 9.86999 9.29709 9.94203C9.65943 10.0141 10.0349 9.97703 10.3762 9.83573C10.7175 9.69432 11.0092 9.45493 11.2144 9.14777C11.4197 8.84072 11.5292 8.47956 11.5292 8.11019C11.5264 7.61573 11.3287 7.14229 10.979 6.79266C10.6294 6.44292 10.1559 6.24526 9.66146 6.24249Z" fill="#B8B8B8"/>
</svg>
