<svg width="20" height="20" viewBox="0 0 20 20" fill="none" xmlns="http://www.w3.org/2000/svg">
<path d="M2.74602 13.0908C3.07151 13.4162 3.59911 13.4161 3.92449 13.0906C4.24987 12.7651 4.24979 12.2375 3.9243 11.9121L2.01214 10.0006L4.9027 7.11006C6.64748 5.36528 9.12439 4.65437 11.4947 5.1538C11.9451 5.24868 12.387 4.96053 12.4819 4.51019C12.5768 4.05986 12.2886 3.61788 11.8383 3.523C8.9224 2.90865 5.87153 3.78424 3.72419 5.93159L0.244308 9.41146C-0.0811495 9.73692 -0.0811104 10.2646 0.244425 10.59L2.74602 13.0908Z" fill="#B8B8B8"/>
<path d="M19.7563 9.41048L17.2547 6.90975C16.9292 6.58437 16.4016 6.58445 16.0762 6.90995C15.7509 7.23544 15.7509 7.76304 16.0764 8.08842L17.9886 9.99992L15.098 12.8905C13.3533 14.6353 10.8763 15.3462 8.506 14.8467C8.05566 14.7519 7.61368 15.04 7.5188 15.4903C7.42392 15.9407 7.71208 16.3827 8.16241 16.4775C11.0783 17.0919 14.1292 16.2163 16.2765 14.069L19.7564 10.5891C20.0819 10.2636 20.0818 9.73586 19.7563 9.41048Z" fill="#B8B8B8"/>
<path d="M5.83374 10.0002C5.83374 10.4605 6.20681 10.8335 6.66703 10.8335C7.12725 10.8335 7.50032 10.4605 7.50032 10.0002C7.50032 8.6197 8.6197 7.50032 10.0002 7.50032C10.4605 7.50032 10.8335 7.12725 10.8335 6.66703C10.8335 6.20681 10.4605 5.83374 10.0002 5.83374C7.69926 5.8337 5.83374 7.69922 5.83374 10.0002Z" fill="#B8B8B8"/>
<path d="M12.5002 10.0003C12.5002 11.3809 11.3808 12.5002 10.0003 12.5002C9.54007 12.5002 9.16699 12.8733 9.16699 13.3335C9.16699 13.7937 9.54007 14.1668 10.0003 14.1668C12.3013 14.1668 14.1668 12.3013 14.1668 10.0003C14.1668 9.54006 13.7937 9.16699 13.3335 9.16699C12.8733 9.16699 12.5002 9.5401 12.5002 10.0003Z" fill="#B8B8B8"/>
<path d="M19.7552 0.244064C19.4298 -0.0813546 18.9022 -0.0813546 18.5767 0.244064L0.244064 18.5768C-0.0813546 18.9022 -0.0813546 19.4298 0.244064 19.7552C0.569482 20.0806 1.09712 20.0806 1.42254 19.7552L19.7552 1.42254C20.0807 1.09712 20.0807 0.569482 19.7552 0.244064Z" fill="#B8B8B8"/>
</svg>
