<svg xmlns="http://www.w3.org/2000/svg" width="184" height="67.716" viewBox="0 0 184 67.716">
  <g id="Octane_logo" data-name="Octane logo" transform="translate(0 -0.001)">
    <path id="Path_4541" data-name="Path 4541" d="M273.632,70.124l1.512-3.974,2.458.084-.731,3.89h6.063l-1.125,2.993h-5.543L272.3,83.956a20.7,20.7,0,0,0-1.069,3.559c-.236,1.333.25,2.163,1.73,2.163a16.971,16.971,0,0,0,2.673-.179L274.5,92.5a13.2,13.2,0,0,1-3.446.4c-3.369,0-4.333-2.043-3.932-4.326A22.683,22.683,0,0,1,268.35,84.4l4.167-11.285,1.118-2.993Z" transform="translate(-173.126 -42.886)" fill="#fff"/>
    <path id="Path_4542" data-name="Path 4542" d="M321.611,99.291a29.836,29.836,0,0,1,1.238-5.6h-.1c-3.51,4.758-6.506,5.5-9.664,5.493-3.967-.011-5.9-3.3-4.7-7.6,2.311-8.257,7.079-14.3,15.766-15.618,2.121-.324,7.9.5,9.341,1,0,0-7.846,19.525-8.314,22.275l-3.563.049Zm6.327-19.416a7.794,7.794,0,0,0-2.588-.331c-7.34,0-11.335,4.969-12.822,11.352-.6,2.564-.3,5.064,2.662,5.071a8.167,8.167,0,0,0,3.046-.812,13.624,13.624,0,0,0,4.871-3.38,8.435,8.435,0,0,0,1.245-1.8c.341-.679.612-1.389.9-2.1.626-1.544,1.182-3.116,1.7-4.7.324-1,.63-2,.911-3.01,0-.014.088-.3.081-.3Z" transform="translate(-199.704 -49.208)" fill="#fff"/>
    <path id="Path_4543" data-name="Path 4543" d="M377.353,99.166,383.216,83.1c.946-2.522,1.91-5.11,2.5-6.988h3.492l-2.163,7.013c2.6-3.19,6.71-6.39,11.764-7.139,3.693-.151,7.318,1.484,3.264,9.946L396.91,99.162h-3.879l5.1-13.093a22.847,22.847,0,0,0,1-3.2c.4-2.275-.1-3.5-2.775-3.5s-8.479,3.408-11.138,8.774l-3.985,11.018H377.35Z" transform="translate(-244.643 -49.255)" fill="#fff"/>
    <path id="Path_4544" data-name="Path 4544" d="M473.948,97.187a15.864,15.864,0,0,1-8.852,2.483c-6.524,0-8.324-4.037-7.083-8.975,1.692-6.717,7.013-14.194,14.915-14.106,6.425.07,9.056,2.015,7.181,7.076-2.557,6.911-8.869,5.8-17.908,5.641a8.966,8.966,0,0,0-.615,4.361c.482,2.012,1.505,3.021,5.17,2.915,2.919,0,6.689-1.976,8.377-2.715l-1.185,3.32ZM463.507,86.365c2.451,0,5.419-.046,8.616-.211a4.881,4.881,0,0,0,2.638-.767c1.322-.911,2.346-2.792,1.846-4.037-.735-1.839-4.705-2.092-7.41-1.136C465.318,81.586,463.81,85.521,463.507,86.365Z" transform="translate(-296.701 -49.653)" fill="#fff"/>
    <path id="Path_4545" data-name="Path 4545" d="M222.556,97.437c-1.238.549-4.621,2.082-7.568,2.082-6.474,0-7.424-4.006-6.517-8.715,1.456-7.547,8.057-14.335,15.945-14.335a28.6,28.6,0,0,1,5.718.573l-.971,3.246a16.981,16.981,0,0,0-5.581-.665c-5.711,0-10.118,5.507-11.124,10.723-.686,3.566.454,6.063,4.037,6.063,2.223,0,6.154-2.047,7.4-2.6l-1.333,3.626Z" transform="translate(-134.966 -49.576)" fill="#fff"/>
    <g id="Group_3960" data-name="Group 3960" transform="translate(0 0.001)">
      <path id="Path_4546" data-name="Path 4546" d="M19.138,93.85.27,94.989l18.583.331Z" transform="translate(-0.175 -60.845)" fill="#fff"/>
      <path id="Path_4547" data-name="Path 4547" d="M33.9,58.46,15.03,59.6l18.583.327Z" transform="translate(-9.744 -37.901)" fill="#fff"/>
      <path id="Path_4548" data-name="Path 4548" d="M42.658,47.95,23.79,49.089l18.586.331Z" transform="translate(-15.424 -31.087)" fill="#fff"/>
      <path id="Path_4549" data-name="Path 4549" d="M56.567,38.43,41.99,39.647l14.352.257Z" transform="translate(-27.223 -24.915)" fill="#fff"/>
      <path id="Path_4550" data-name="Path 4550" d="M173.847,43.89,159.27,45.107l14.352.253Z" transform="translate(-103.258 -28.455)" fill="#fff"/>
      <path id="Path_4551" data-name="Path 4551" d="M22.438,82.32,3.57,83.459l18.586.331Z" transform="translate(-2.314 -53.37)" fill="#fff"/>
      <path id="Path_4552" data-name="Path 4552" d="M22.49,70.51,0,71.586l22.159.394Z" transform="translate(0 -45.713)" fill="#fff"/>
      <path id="Path_4553" data-name="Path 4553" d="M142.278,98.3,123.41,99.439l18.583.331Z" transform="translate(-80.009 -63.73)" fill="#fff"/>
      <path id="Path_4554" data-name="Path 4554" d="M157.038,62.91,138.17,64.049l18.583.331Z" transform="translate(-89.578 -40.786)" fill="#fff"/>
      <path id="Path_4555" data-name="Path 4555" d="M165.8,52.4,146.93,53.539l18.586.331Z" transform="translate(-95.258 -33.972)" fill="#fff"/>
      <path id="Path_4556" data-name="Path 4556" d="M145.578,86.77,126.71,87.909l18.586.331Z" transform="translate(-82.149 -56.255)" fill="#fff"/>
      <path id="Path_4557" data-name="Path 4557" d="M145.63,74.96l-22.49,1.076,22.159.394Z" transform="translate(-79.834 -48.598)" fill="#fff"/>
      <path id="Path_4558" data-name="Path 4558" d="M105.968,6.739C100.855-1.424,86.5-.85,78.235,1.622,62.332,6.377,56.469,21.907,55.312,25.29c-1.375,4.027-5.085,14.887.165,20.528,5.377,5.775,18.569,4.364,20.478,4.16.454-.049.795-.095.879-.106a30.876,30.876,0,0,0,15.523-6.056A36.7,36.7,0,0,0,103.19,29.429c2.6-5.687,6.8-15.762,2.775-22.683Zm-6.3,14.746c-2.8,9.414-8,18.913-17.7,22.508-5.634,2.089-12.935,2.9-18.175-.64-7.072-4.772-3.745-14.106-.816-20.327q.448-.95.921-1.889c4.055-7.973,11.159-14.38,20.239-15.671,5.708-.812,14-.288,16.068,6.281C101.189,14.9,100.584,18.4,99.666,21.485Z" transform="translate(-34.201 -0.001)" fill="#fff"/>
      <path id="Path_4559" data-name="Path 4559" d="M89.62,61.286s20.194,2.49,32.78-11.377S135.767,18.691,132,13.5c2.775,1.495,9.886,14.363-4.2,34.415S89.549,62.352,89.62,61.283Z" transform="translate(-58.102 -8.753)" fill="#fff"/>
    </g>
    <g id="Group_3963" data-name="Group 3963" transform="translate(65.254 57.286)">
      <path id="Path_4560" data-name="Path 4560" d="M192.692,167.311v.042h-.9V167.3a1.82,1.82,0,0,0-.538-1.54,2.415,2.415,0,0,0-1.713-.58,2.909,2.909,0,0,0-1.741.482,1.6,1.6,0,0,0-.717,1.241c0,.042,0,.088,0,.13a1.283,1.283,0,0,0,.482,1.016,4.841,4.841,0,0,0,1.79.8,8.28,8.28,0,0,1,1.9.735,2.567,2.567,0,0,1,.95.918,2.251,2.251,0,0,1,.25,1.27,2.389,2.389,0,0,1-1.041,1.839,4.116,4.116,0,0,1-2.444.693,4.479,4.479,0,0,1-1.836-.366,2.665,2.665,0,0,1-1.227-1.03,2.549,2.549,0,0,1-.338-1.516v-.042h.9v.053a1.7,1.7,0,0,0,.612,1.551,2.961,2.961,0,0,0,1.931.577,3.1,3.1,0,0,0,1.79-.482,1.628,1.628,0,0,0,.746-1.27,1.412,1.412,0,0,0-.45-1.224,5.468,5.468,0,0,0-1.952-.862,6.547,6.547,0,0,1-2.1-.918,2.045,2.045,0,0,1-.862-1.864,2.382,2.382,0,0,1,1.044-1.811,3.971,3.971,0,0,1,2.37-.693,3.679,3.679,0,0,1,1.685.369,2.6,2.6,0,0,1,1.111,1.044,2.572,2.572,0,0,1,.313,1.488Z" transform="translate(-185.549 -163.875)" fill="#fff"/>
      <path id="Path_4561" data-name="Path 4561" d="M214.545,172.26a2.43,2.43,0,0,0-2.019-.9,2.884,2.884,0,0,0-1.583.478,3.568,3.568,0,0,0-1.21,1.3,4.428,4.428,0,0,0-.528,1.864l-.018.281a3.8,3.8,0,0,0,.281,1.808,2.791,2.791,0,0,0,1.069,1.263,2.968,2.968,0,0,0,1.621.454,3.133,3.133,0,0,0,2.627-1.273l.028-.032-.535-.429-.032.032a2.71,2.71,0,0,1-.9.721,2.593,2.593,0,0,1-1.1.225,1.993,1.993,0,0,1-1.639-.781,2.783,2.783,0,0,1-.538-1.98v-.1h5.047l.032-.482a3.485,3.485,0,0,0-.594-2.444Zm-.257,2.163h-4.136a3.154,3.154,0,0,1,.83-1.663,2.069,2.069,0,0,1,1.5-.637,1.653,1.653,0,0,1,1.357.622,2.453,2.453,0,0,1,.454,1.635v.042Z" transform="translate(-200.868 -168.381)" fill="#fff"/>
      <path id="Path_4562" data-name="Path 4562" d="M232.186,163.28l0,.053-.707,10.111H230.6l0-.053.707-10.111Z" transform="translate(-214.756 -163.143)" fill="#fff"/>
      <path id="Path_4563" data-name="Path 4563" d="M243.815,163.013l-.123.739-.046-.011a2.866,2.866,0,0,0-.7-.081,1.327,1.327,0,0,0-1,.39,1.739,1.739,0,0,0-.426,1.118l-.06.83h1.685l-.053.735h-1.685l-.45,6.453h-.876v-.053l.45-6.4H239.37l.053-.735h1.168l.056-.816a2.559,2.559,0,0,1,.682-1.7,2.205,2.205,0,0,1,1.611-.594,2.985,2.985,0,0,1,.833.113l.042.011Z" transform="translate(-220.442 -162.89)" fill="#fff"/>
      <path id="Path_4564" data-name="Path 4564" d="M257.654,178.83l-.056.76H254.38l.053-.76Z" transform="translate(-230.173 -173.224)" fill="#fff"/>
      <path id="Path_4565" data-name="Path 4565" d="M276.2,173.462v-.053a1.12,1.12,0,0,0-.426-.992,1.869,1.869,0,0,0-1.248-.4,2.074,2.074,0,0,0-1.231.334,1.121,1.121,0,0,0-.51.862.851.851,0,0,0,.313.781,3.842,3.842,0,0,0,1.357.524,6.237,6.237,0,0,1,1.516.524,1.847,1.847,0,0,1,.735.679,1.7,1.7,0,0,1,.186.964,1.9,1.9,0,0,1-.844,1.47,3.3,3.3,0,0,1-1.948.542,3.07,3.07,0,0,1-1.991-.608,1.762,1.762,0,0,1-.675-1.554v-.046h.876v.046a1.222,1.222,0,0,0,.482,1.034,2.188,2.188,0,0,0,1.354.376,2.268,2.268,0,0,0,1.315-.352,1.128,1.128,0,0,0,.549-.876.988.988,0,0,0-.383-.9,3.292,3.292,0,0,0-1.347-.542,6.271,6.271,0,0,1-1.438-.464,1.781,1.781,0,0,1-.746-.651,1.554,1.554,0,0,1-.2-.932,1.878,1.878,0,0,1,.816-1.417,3.042,3.042,0,0,1,1.853-.556,2.8,2.8,0,0,1,1.889.6,1.808,1.808,0,0,1,.622,1.568v.042H276.2Z" transform="translate(-241.23 -168.31)" fill="#fff"/>
      <path id="Path_4566" data-name="Path 4566" d="M297.065,172.16a2.435,2.435,0,0,0-2.019-.9,2.884,2.884,0,0,0-1.583.478,3.539,3.539,0,0,0-1.21,1.3,4.4,4.4,0,0,0-.528,1.864l-.018.281a3.8,3.8,0,0,0,.281,1.808,2.782,2.782,0,0,0,1.069,1.259,2.9,2.9,0,0,0,1.621.454,3.13,3.13,0,0,0,2.627-1.27l.028-.039-.538-.429-.028.039a2.755,2.755,0,0,1-.907.721,2.577,2.577,0,0,1-1.1.225,1.98,1.98,0,0,1-1.639-.788,2.769,2.769,0,0,1-.538-1.976v-.109h5.047l.032-.482a3.475,3.475,0,0,0-.594-2.441ZM295,172.023a1.644,1.644,0,0,1,1.357.622,2.453,2.453,0,0,1,.454,1.635v.042h-4.139a3.178,3.178,0,0,1,.83-1.667,2.059,2.059,0,0,1,1.5-.633Z" transform="translate(-254.367 -168.316)" fill="#fff"/>
      <path id="Path_4567" data-name="Path 4567" d="M316.746,171.362l-.081.8-.053-.011a2.657,2.657,0,0,0-.513-.046,2.027,2.027,0,0,0-1.238.4,2.414,2.414,0,0,0-.788,1.161l-.341,4.906h-.872v-.046l.5-7.136h.858l-.056.988a2.264,2.264,0,0,1,2.019-1.118,1.253,1.253,0,0,1,.528.088l.032.014Z" transform="translate(-268.087 -168.316)" fill="#fff"/>
      <path id="Path_4568" data-name="Path 4568" d="M332.179,171.63l-.035.067L329,178.815h-.7l-.007-.035-2.173-7.15h.9l.007.032,1.709,5.887,2.529-5.919Z" transform="translate(-276.684 -168.556)" fill="#fff"/>
      <g id="Group_3961" data-name="Group 3961" transform="translate(56.582 0.499)">
        <path id="Path_4569" data-name="Path 4569" d="M349.043,164.887a.6.6,0,0,1-.626.57.53.53,0,0,1-.415-.165.539.539,0,0,1-.127-.408.6.6,0,0,1,.183-.4.588.588,0,0,1,.436-.169.516.516,0,0,1,.415.169.546.546,0,0,1,.137.408Z" transform="translate(-347.369 -164.31)" fill="#fff"/>
        <path id="Path_4570" data-name="Path 4570" d="M347.815,171.63v.053l-.5,7.132h-.872l0-.049.5-7.136Z" transform="translate(-346.44 -169.056)" fill="#fff"/>
      </g>
      <path id="Path_4571" data-name="Path 4571" d="M360.236,173.883v-.046a1.775,1.775,0,0,0-.492-1.312,1.747,1.747,0,0,0-1.3-.5,2.06,2.06,0,0,0-1.656.749,3.661,3.661,0,0,0-.724,2.121l-.014.229a3.244,3.244,0,0,0,.426,2.089,1.789,1.789,0,0,0,1.558.739,2.168,2.168,0,0,0,1.372-.454,1.724,1.724,0,0,0,.661-1.161l.011-.042h.844v.053a2.5,2.5,0,0,1-.506,1.21,2.972,2.972,0,0,1-1.062.848,3.205,3.205,0,0,1-1.361.306,2.6,2.6,0,0,1-2.173-.988,3.794,3.794,0,0,1-.64-2.641l.018-.236a4.644,4.644,0,0,1,.5-1.874,3.049,3.049,0,0,1,2.8-1.706,2.611,2.611,0,0,1,1.9.707,2.43,2.43,0,0,1,.693,1.864v.046h-.844Z" transform="translate(-295.509 -168.323)" fill="#fff"/>
      <path id="Path_4572" data-name="Path 4572" d="M380.958,172.16a2.428,2.428,0,0,0-2.015-.9,2.886,2.886,0,0,0-1.586.478,3.521,3.521,0,0,0-1.2,1.3,4.4,4.4,0,0,0-.528,1.864l-.025.281a3.883,3.883,0,0,0,.285,1.808,2.789,2.789,0,0,0,1.062,1.259,2.922,2.922,0,0,0,1.625.454,3.124,3.124,0,0,0,2.624-1.27l.028-.039-.535-.429-.028.039a2.756,2.756,0,0,1-.907.721,2.577,2.577,0,0,1-1.1.225,1.991,1.991,0,0,1-1.642-.788,2.785,2.785,0,0,1-.538-1.976l.011-.109h5.04l.032-.482a3.44,3.44,0,0,0-.594-2.441Zm-4.392,2.163a3.234,3.234,0,0,1,.833-1.667,2.059,2.059,0,0,1,1.5-.633,1.641,1.641,0,0,1,1.354.622,2.415,2.415,0,0,1,.454,1.635v.042h-4.139Z" transform="translate(-308.758 -168.316)" fill="#fff"/>
      <g id="Group_3962" data-name="Group 3962" transform="translate(79.392 0.39)">
        <path id="Path_4573" data-name="Path 4573" d="M419.28,164.39l0,.053-.841,9.545h-.9l.007-.049.394-4.512H412.6l-.4,4.561h-.9l.007-.049.833-9.548h.9l0,.053-.369,4.217H418l.373-4.269Z" transform="translate(-411.3 -164.253)" fill="#fff"/>
        <path id="Path_4574" data-name="Path 4574" d="M445.413,168.874a2.853,2.853,0,0,0,.689-1.639,2.414,2.414,0,0,0-.689-2.1,3.349,3.349,0,0,0-2.346-.749h-3.133l-.833,9.548v.053h.9l.348-3.967h2.694l1.934,3.939.014.028h.928l.014-.141-2-4.013a3.12,3.12,0,0,0,1.488-.96Zm-2.588.376h-2.405l.355-4.087H443a2.434,2.434,0,0,1,1.713.542,1.773,1.773,0,0,1,.485,1.523,2.113,2.113,0,0,1-.724,1.459,2.438,2.438,0,0,1-1.649.563Z" transform="translate(-429.323 -164.253)" fill="#fff"/>
        <path id="Path_4575" data-name="Path 4575" d="M474.323,164.39l0,.053-.837,9.545h-.9l.007-.049.359-4.139.411-4-4.171,8.184h-.682l-.011-.032-2.722-8.127-.285,3.949-.366,4.21h-.9l0-.049.833-9.548h1.143l.011.032,2.736,8.279,4.217-8.31Z" transform="translate(-445.616 -164.253)" fill="#fff"/>
        <path id="Path_4576" data-name="Path 4576" d="M504.162,166.894v.042h-.907v-.053a1.773,1.773,0,0,0-.51-1.526,2.338,2.338,0,0,0-1.706-.58,2.918,2.918,0,0,0-1.751.478,1.641,1.641,0,0,0-.735,1.238,1.279,1.279,0,0,0,.457,1.146,4.848,4.848,0,0,0,1.776.795,8.155,8.155,0,0,1,1.889.732,2.491,2.491,0,0,1,.928.914,2.173,2.173,0,0,1,.236,1.263,2.448,2.448,0,0,1-1.076,1.836,4.172,4.172,0,0,1-2.455.682,4.519,4.519,0,0,1-1.832-.362,2.565,2.565,0,0,1-1.21-1.027,2.491,2.491,0,0,1-.309-1.509v-.042h.9v.053a1.689,1.689,0,0,0,.591,1.544,2.948,2.948,0,0,0,1.92.566,3.129,3.129,0,0,0,1.8-.478,1.666,1.666,0,0,0,.767-1.263,1.392,1.392,0,0,0-.429-1.213,5.367,5.367,0,0,0-1.938-.865,6.417,6.417,0,0,1-2.089-.914,2,2,0,0,1-.83-1.853,2.43,2.43,0,0,1,1.073-1.808A4.037,4.037,0,0,1,501.1,164a3.668,3.668,0,0,1,1.685.369,2.492,2.492,0,0,1,1.087,1.041,2.586,2.586,0,0,1,.292,1.481Z" transform="translate(-466.824 -164)" fill="#fff"/>
      </g>
    </g>
  </g>
</svg>
