<svg width="390" height="39" viewBox="0 0 390 39" fill="none" xmlns="http://www.w3.org/2000/svg">
<path d="M3.77714 7.16643C3.61828 7.4165 3.74184 13.8467 3.90069 14.0789C4.00659 14.2218 5.1362 14.2754 7.69547 14.2932C11.3491 14.2932 11.808 14.3826 11.808 14.972C11.808 15.2221 11.3314 16.5081 10.8372 17.6155C10.696 17.9013 10.2371 19.0266 9.79584 20.1162C9.37224 21.1879 8.77213 22.6347 8.47208 23.2955C8.17203 23.9743 7.92492 24.5994 7.92492 24.6887C7.92492 24.8495 7.30717 26.2606 6.35406 28.2432L5.89515 29.2256L2.98288 29.3149L0.0706006 29.4042L0.0176502 32.7801C-0.0176501 34.6377 -9.47092e-08 36.3524 0.0706006 36.5846L0.158851 36.9954H22.3981V29.6186L20.8448 29.7436C19.9976 29.815 19.1681 29.815 18.9916 29.7615C18.6209 29.6007 18.5856 28.7612 18.9386 28.1003C19.2034 27.5645 19.927 25.9569 20.7919 24.0457C21.6038 22.206 21.745 21.9559 22.098 21.7416C22.504 21.4915 22.5569 21.5808 23.2629 23.8314C23.563 24.8316 24.0219 26.2606 24.269 26.9929C24.5161 27.7252 24.7808 28.6183 24.8514 28.9577C24.922 29.2971 25.2044 30.2259 25.4692 31.0118C25.7339 31.7977 26.0516 32.798 26.1752 33.2445C26.5635 34.5663 27.0401 36.1738 27.093 36.406C27.1813 36.7454 37.8067 36.7454 38.0714 36.4239C38.1597 36.2988 38.5303 35.4236 38.8833 34.4948C39.5187 32.8158 39.6776 32.4229 40.1365 31.369C40.2777 31.0654 40.666 30.0651 41.019 29.1363C41.372 28.2075 41.8132 27.0822 42.025 26.6357C42.2192 26.1891 42.4486 25.6354 42.5369 25.3854C42.6604 24.9745 43.2959 23.2419 43.7371 22.1167C43.8607 21.7773 44.0548 21.6344 44.3725 21.6344C44.7079 21.6344 44.8314 21.7594 44.9197 22.1167C44.9903 22.4024 45.1491 22.8133 45.2727 23.0633C45.6433 23.8135 46.3493 25.4389 46.4905 25.9212C46.5611 26.1713 46.7376 26.5285 46.8612 26.725C47.0024 26.9215 47.1083 27.243 47.1083 27.4573C47.1083 27.6716 47.2142 27.9396 47.3554 28.0467C47.726 28.3504 47.9025 29.5114 47.6025 29.69C47.4789 29.7793 46.4023 29.8508 45.2021 29.8508H43.0488L43.0841 33.3695L43.137 36.9061L61.652 36.9597C74.466 36.9776 80.2376 36.9419 80.3965 36.8168C80.5554 36.6739 80.6083 35.8523 80.573 33.5303C80.5554 31.8513 80.4671 30.3509 80.3965 30.2259C80.2906 30.0651 79.7082 30.0115 78.2785 30.0294C75.8075 30.0651 75.9487 30.083 75.631 29.7436C75.4192 29.5471 75.3486 29.1006 75.3486 28.0467C75.3486 25.9926 75.4015 25.9391 78.402 25.9391C81.1378 25.9391 81.279 25.9926 82.8852 27.5109C84.6855 29.2435 86.1505 30.6188 88.2155 32.53C89.3275 33.566 90.563 34.727 90.969 35.1378C91.3749 35.5308 92.028 36.1024 92.4163 36.4239L93.1223 36.9776L110.261 36.9954C119.686 37.0133 127.487 36.9776 127.593 36.9061C127.875 36.7275 127.84 30.3866 127.558 30.3509C127.434 30.3509 126.075 30.3152 124.54 30.2973C122.351 30.2795 121.698 30.208 121.574 30.0115C121.486 29.8686 121.415 29.1006 121.415 28.2789C121.415 26.8679 121.433 26.7964 121.857 26.6357C122.121 26.5285 124.698 26.4928 128.105 26.5285C131.3 26.5642 134 26.5285 134.106 26.4571C134.247 26.3856 134.3 25.3318 134.265 23.0455L134.212 19.7589L128.052 19.7053C123.869 19.6875 121.804 19.5982 121.645 19.4731C121.468 19.3124 121.415 18.6336 121.415 16.7224C121.415 14.5612 121.451 14.1504 121.698 14.061C121.857 14.0075 125.722 13.9539 130.311 13.9539C136.559 13.9539 138.695 14.0075 138.854 14.1682C138.995 14.3111 139.066 15.2221 139.066 17.0797C139.066 18.9373 139.136 19.8482 139.277 19.9911C139.578 20.2948 147.591 20.2948 147.855 19.9733C147.961 19.8482 148.014 17.5262 147.997 13.5966L147.979 7.43436L126.763 7.38077L105.53 7.34505V13.9539H111.002L111.196 14.4183C111.443 15.1149 111.337 29.7615 111.073 30.0294C110.825 30.2795 100.588 30.333 100.182 30.083C100.041 30.0115 99.3175 29.2613 98.5762 28.4397C97.0759 26.7964 96.97 26.3856 97.8525 25.9212C99.0351 25.3139 100.659 23.9207 101.436 22.849C102.989 20.7413 103.412 19.4017 103.412 16.5974C103.412 15.1506 103.324 14.3647 103.112 13.7753C101.965 10.6495 99.494 8.84543 94.7637 7.63084C93.7224 7.36291 91.1278 7.34505 66.2764 7.38077C42.2015 7.43436 38.9186 7.47008 38.7951 7.70228C38.6539 7.93448 37.7008 10.0243 36.6947 12.257C34.5943 16.9725 34.3649 17.3655 33.9766 17.3119C33.7118 17.2761 33.4294 16.9011 33.0411 16.0973C32.7234 15.4543 32.4763 14.8112 32.4763 14.6505C32.4587 14.4897 32.3351 14.2575 32.1939 14.1325C32.0527 14.0075 31.9291 13.7753 31.9291 13.6145C31.9291 13.4537 31.8585 13.2394 31.7879 13.1322C31.6997 13.0429 31.2937 12.1677 30.8701 11.1853C29.6876 8.43461 29.1404 7.29146 28.8933 7.13071C28.5933 6.93423 3.90069 6.96995 3.77714 7.16643ZM64.6702 14.7934C64.935 15.0434 64.9526 15.7043 64.935 20.9021C64.882 27.8324 64.8114 29.2435 64.4584 29.6007C64.229 29.8151 63.8583 29.8508 62.4816 29.7615C61.5461 29.7079 60.6636 29.6186 60.5048 29.5828C60.24 29.4935 59.534 28.0825 58.7574 26.0998C58.5456 25.564 58.1749 24.7066 57.9455 24.1886C57.716 23.6885 57.5219 23.2062 57.5219 23.1169C57.5042 23.0455 57.363 22.6525 57.1689 22.2596C56.9747 21.8666 56.8335 21.4915 56.8159 21.4201C56.8159 21.3486 56.5158 20.6163 56.1452 19.8125C55.7745 18.9909 55.2803 17.8477 55.0509 17.2583C54.8391 16.6688 54.5214 15.9365 54.3802 15.6329C53.833 14.4719 53.7801 14.4897 59.3575 14.4897C63.7877 14.4897 64.4231 14.5254 64.6702 14.7934ZM91.1984 15.097C91.8515 15.7579 91.7809 16.9011 91.0572 17.5619L90.5277 18.0621H83.1146C75.984 18.0621 75.7016 18.0442 75.5251 17.7227C75.3133 17.294 75.2956 15.5614 75.5251 15.2042C75.7545 14.8291 77.3077 14.7219 83.2911 14.6862C86.1505 14.6683 88.5332 14.6148 88.5862 14.5612C88.6391 14.4897 89.151 14.4897 89.7158 14.5433C90.5101 14.6148 90.863 14.7398 91.1984 15.097Z" fill="#E23A1A"/>
<path d="M174.379 18.5869C173.456 16.8877 172.196 15.7231 170.6 15.0933C169.809 14.7856 168.996 14.6318 168.161 14.6318C167.472 14.6318 166.769 14.7417 166.051 14.9614C164.499 15.4448 163.378 16.3384 162.689 17.6421C161.913 19.0483 161.525 20.7036 161.525 22.6079C161.525 24.5122 161.913 26.1675 162.689 27.5737C163.378 28.8921 164.499 29.7856 166.051 30.2544C166.784 30.4888 167.487 30.606 168.161 30.606C168.996 30.606 169.809 30.4448 170.6 30.1226C171.977 29.6392 173.456 28.5479 175.038 26.8486L181.103 30.4082C179.726 32.5469 177.902 34.2461 175.631 35.5059C173.302 36.7949 170.783 37.4395 168.073 37.4395C163.839 37.4395 160.236 35.9893 157.262 33.0889C154.259 30.2031 152.758 26.7095 152.758 22.6079C152.758 18.521 154.259 15.0273 157.262 12.127C160.236 9.24121 163.839 7.79834 168.073 7.79834C170.783 7.79834 173.302 8.43555 175.631 9.70996C176.056 9.94434 176.466 10.1934 176.862 10.457L177.543 8.12793H181.652V18.5869H174.379ZM198.966 7.79834C203.2 7.79834 206.803 9.24121 209.777 12.127C212.78 15.0273 214.281 18.521 214.281 22.6079C214.281 26.7095 212.78 30.2031 209.777 33.0889C206.803 35.9893 203.2 37.4395 198.966 37.4395C194.733 37.4395 191.129 35.9893 188.156 33.0889C185.153 30.2031 183.651 26.7095 183.651 22.6079C183.651 18.521 185.153 15.0273 188.156 12.127C191.129 9.24121 194.733 7.79834 198.966 7.79834ZM205.009 22.6079C205.009 20.147 204.379 18.1841 203.119 16.7192C201.991 15.4155 200.607 14.7637 198.966 14.7637C197.34 14.7637 195.963 15.4155 194.835 16.7192C193.576 18.1841 192.946 20.147 192.946 22.6079C192.946 25.0835 193.576 27.0464 194.835 28.4966C195.963 29.8003 197.34 30.4595 198.966 30.4741C200.607 30.4741 201.991 29.8149 203.119 28.4966C204.379 27.0464 205.009 25.0835 205.009 22.6079ZM231.486 8.12793V10.9404L239.748 25.0688V14.9175H236.034V8.12793H250.404V14.9175H247.548V30.2104H250.404V37H233.837V30.2104H234.958L228.19 18.7188V30.2324H231.486V37H217.138V30.2324H220.39V14.8955H217.138V8.12793H231.486ZM268.268 8.12793V10.9404L276.53 25.0688V14.9175H272.816V8.12793H287.187V14.9175H284.33V30.2104H287.187V37H270.619V30.2104H271.74L264.972 18.7188V30.2324H268.268V37H253.92V30.2324H257.172V14.8955H253.92V8.12793H268.268ZM293.976 14.9175H290.702V8.12793H313.883V16.3018H309.093V14.5659H302.326V18.8726H310.587V24.959H302.326V30.7158H309.093V28.8481H313.883V37H290.724V30.2104H293.976V14.9175ZM339.042 18.5869C338.119 16.8877 336.859 15.7231 335.263 15.0933C334.472 14.7856 333.659 14.6318 332.824 14.6318C332.135 14.6318 331.432 14.7417 330.714 14.9614C329.162 15.4448 328.041 16.3384 327.353 17.6421C326.576 19.0483 326.188 20.7036 326.188 22.6079C326.188 24.5122 326.576 26.1675 327.353 27.5737C328.041 28.8921 329.162 29.7856 330.714 30.2544C331.447 30.4888 332.15 30.606 332.824 30.606C333.659 30.606 334.472 30.4448 335.263 30.1226C336.64 29.6392 338.119 28.5479 339.701 26.8486L345.766 30.4082C344.389 32.5469 342.565 34.2461 340.294 35.5059C337.965 36.7949 335.446 37.4395 332.736 37.4395C328.502 37.4395 324.899 35.9893 321.925 33.0889C318.922 30.2031 317.421 26.7095 317.421 22.6079C317.421 18.521 318.922 15.0273 321.925 12.127C324.899 9.24121 328.502 7.79834 332.736 7.79834C335.446 7.79834 337.965 8.43555 340.294 9.70996C340.719 9.94434 341.129 10.1934 341.525 10.457L342.206 8.12793H346.315V18.5869H339.042ZM366.859 30.2544H370.309V37H355.214V30.2544H358.51V14.478H354.621V18.1035H348.974V8.12793H376.396V18.1035H370.749V14.478H366.859V30.2544Z" fill="black"/>
</svg>
